<mxfile host="Electron" agent="Mozilla/5.0 (Windows NT 10.0; Win64; x64) AppleWebKit/537.36 (KHTML, like Gecko) draw.io/26.2.15 Chrome/134.0.6998.205 Electron/35.2.1 Safari/537.36" version="26.2.15">
  <diagram name="Page-1" id="dUDMpb63yqQHQvWpxwcz">
    <mxGraphModel dx="2316" dy="2075" grid="1" gridSize="10" guides="1" tooltips="1" connect="1" arrows="1" fold="1" page="1" pageScale="1" pageWidth="827" pageHeight="1169" math="0" shadow="0">
      <root>
        <mxCell id="0" />
        <mxCell id="1" parent="0" />
        <mxCell id="ozXagMjWztN7Irjtj4HX-2" value="机器人" style="rounded=0;whiteSpace=wrap;html=1;fontFamily=宋体;fontSize=17;" parent="1" vertex="1">
          <mxGeometry x="120" y="260" width="120" height="60" as="geometry" />
        </mxCell>
        <mxCell id="ozXagMjWztN7Irjtj4HX-3" value="AI" style="rounded=0;whiteSpace=wrap;html=1;fontFamily=宋体;fontSize=17;" parent="1" vertex="1">
          <mxGeometry x="590" y="300" width="120" height="60" as="geometry" />
        </mxCell>
        <mxCell id="ozXagMjWztN7Irjtj4HX-7" value="硬件" style="rounded=0;whiteSpace=wrap;html=1;fontFamily=宋体;fontSize=17;" parent="1" vertex="1">
          <mxGeometry x="-150" y="280" width="120" height="60" as="geometry" />
        </mxCell>
        <mxCell id="ozXagMjWztN7Irjtj4HX-8" value="结构" style="rounded=0;whiteSpace=wrap;html=1;fontFamily=宋体;fontSize=17;" parent="1" vertex="1">
          <mxGeometry x="50" y="110" width="120" height="60" as="geometry" />
        </mxCell>
        <mxCell id="ozXagMjWztN7Irjtj4HX-11" value="" style="endArrow=classic;html=1;rounded=0;exitX=0.25;exitY=0;exitDx=0;exitDy=0;" parent="1" source="ozXagMjWztN7Irjtj4HX-2" edge="1">
          <mxGeometry width="50" height="50" relative="1" as="geometry">
            <mxPoint x="240" y="230" as="sourcePoint" />
            <mxPoint x="120" y="170" as="targetPoint" />
          </mxGeometry>
        </mxCell>
        <mxCell id="ozXagMjWztN7Irjtj4HX-12" value="" style="endArrow=classic;html=1;rounded=0;exitX=0;exitY=0.75;exitDx=0;exitDy=0;entryX=1;entryY=0.5;entryDx=0;entryDy=0;" parent="1" source="ozXagMjWztN7Irjtj4HX-2" target="ozXagMjWztN7Irjtj4HX-7" edge="1">
          <mxGeometry width="50" height="50" relative="1" as="geometry">
            <mxPoint x="90" y="460" as="sourcePoint" />
            <mxPoint x="60" y="370" as="targetPoint" />
          </mxGeometry>
        </mxCell>
        <mxCell id="ozXagMjWztN7Irjtj4HX-14" value="算法" style="rounded=0;whiteSpace=wrap;html=1;fontFamily=宋体;fontSize=17;" parent="1" vertex="1">
          <mxGeometry x="210" y="460" width="120" height="60" as="geometry" />
        </mxCell>
        <mxCell id="ozXagMjWztN7Irjtj4HX-15" value="" style="endArrow=classic;html=1;rounded=0;exitX=0.665;exitY=1.027;exitDx=0;exitDy=0;entryX=0.5;entryY=0;entryDx=0;entryDy=0;exitPerimeter=0;" parent="1" source="ozXagMjWztN7Irjtj4HX-2" target="ozXagMjWztN7Irjtj4HX-14" edge="1">
          <mxGeometry width="50" height="50" relative="1" as="geometry">
            <mxPoint x="160" y="330" as="sourcePoint" />
            <mxPoint x="40" y="400" as="targetPoint" />
          </mxGeometry>
        </mxCell>
        <mxCell id="ozXagMjWztN7Irjtj4HX-16" value="嵌入式" style="rounded=0;whiteSpace=wrap;html=1;fontFamily=宋体;fontSize=17;" parent="1" vertex="1">
          <mxGeometry x="-80" y="440" width="120" height="60" as="geometry" />
        </mxCell>
        <mxCell id="ozXagMjWztN7Irjtj4HX-17" value="" style="endArrow=classic;html=1;rounded=0;exitX=0.25;exitY=1;exitDx=0;exitDy=0;entryX=1;entryY=0.25;entryDx=0;entryDy=0;" parent="1" source="ozXagMjWztN7Irjtj4HX-2" target="ozXagMjWztN7Irjtj4HX-16" edge="1">
          <mxGeometry width="50" height="50" relative="1" as="geometry">
            <mxPoint x="130" y="315" as="sourcePoint" />
            <mxPoint x="-20" y="320" as="targetPoint" />
          </mxGeometry>
        </mxCell>
        <mxCell id="ozXagMjWztN7Irjtj4HX-18" value="" style="endArrow=classic;html=1;rounded=0;exitX=0.25;exitY=0;exitDx=0;exitDy=0;entryX=0.688;entryY=0.981;entryDx=0;entryDy=0;entryPerimeter=0;" parent="1" source="ozXagMjWztN7Irjtj4HX-8" target="ozXagMjWztN7Irjtj4HX-19" edge="1">
          <mxGeometry width="50" height="50" relative="1" as="geometry">
            <mxPoint x="100" y="30" as="sourcePoint" />
            <mxPoint x="-20" y="-70" as="targetPoint" />
          </mxGeometry>
        </mxCell>
        <mxCell id="ozXagMjWztN7Irjtj4HX-19" value="动力系统" style="rounded=0;whiteSpace=wrap;html=1;fontFamily=宋体;fontSize=17;" parent="1" vertex="1">
          <mxGeometry x="-60" y="-50" width="120" height="60" as="geometry" />
        </mxCell>
        <mxCell id="ozXagMjWztN7Irjtj4HX-20" value="结构力学" style="rounded=0;whiteSpace=wrap;html=1;fontFamily=宋体;fontSize=17;" parent="1" vertex="1">
          <mxGeometry x="160" y="-70" width="120" height="60" as="geometry" />
        </mxCell>
        <mxCell id="ozXagMjWztN7Irjtj4HX-21" value="" style="endArrow=classic;html=1;rounded=0;exitX=0.75;exitY=0;exitDx=0;exitDy=0;entryX=0.25;entryY=1;entryDx=0;entryDy=0;" parent="1" source="ozXagMjWztN7Irjtj4HX-8" target="ozXagMjWztN7Irjtj4HX-20" edge="1">
          <mxGeometry width="50" height="50" relative="1" as="geometry">
            <mxPoint x="300" y="160" as="sourcePoint" />
            <mxPoint x="270" y="70" as="targetPoint" />
          </mxGeometry>
        </mxCell>
        <mxCell id="ozXagMjWztN7Irjtj4HX-22" value="感知" style="rounded=0;whiteSpace=wrap;html=1;fontFamily=宋体;fontSize=17;" parent="1" vertex="1">
          <mxGeometry x="-90" y="630" width="120" height="60" as="geometry" />
        </mxCell>
        <mxCell id="ozXagMjWztN7Irjtj4HX-23" value="" style="endArrow=classic;html=1;rounded=0;exitX=0;exitY=0.75;exitDx=0;exitDy=0;entryX=0.5;entryY=0;entryDx=0;entryDy=0;" parent="1" source="ozXagMjWztN7Irjtj4HX-14" target="ozXagMjWztN7Irjtj4HX-22" edge="1">
          <mxGeometry width="50" height="50" relative="1" as="geometry">
            <mxPoint x="345" y="510" as="sourcePoint" />
            <mxPoint x="320" y="640" as="targetPoint" />
          </mxGeometry>
        </mxCell>
        <mxCell id="ozXagMjWztN7Irjtj4HX-24" value="控制" style="rounded=0;whiteSpace=wrap;html=1;fontFamily=宋体;fontSize=17;" parent="1" vertex="1">
          <mxGeometry x="500" y="560" width="120" height="60" as="geometry" />
        </mxCell>
        <mxCell id="ozXagMjWztN7Irjtj4HX-27" value="" style="endArrow=classic;html=1;rounded=0;exitX=1;exitY=0.75;exitDx=0;exitDy=0;entryX=0;entryY=0.25;entryDx=0;entryDy=0;" parent="1" source="ozXagMjWztN7Irjtj4HX-14" target="ozXagMjWztN7Irjtj4HX-24" edge="1">
          <mxGeometry width="50" height="50" relative="1" as="geometry">
            <mxPoint x="300" y="527" as="sourcePoint" />
            <mxPoint x="330" y="610" as="targetPoint" />
          </mxGeometry>
        </mxCell>
        <mxCell id="ozXagMjWztN7Irjtj4HX-28" value="导航" style="rounded=0;whiteSpace=wrap;html=1;fontFamily=宋体;fontSize=17;" parent="1" vertex="1">
          <mxGeometry x="230" y="650" width="120" height="60" as="geometry" />
        </mxCell>
        <mxCell id="ozXagMjWztN7Irjtj4HX-29" value="" style="endArrow=classic;html=1;rounded=0;entryX=0.345;entryY=0.019;entryDx=0;entryDy=0;entryPerimeter=0;exitX=0.381;exitY=1.005;exitDx=0;exitDy=0;exitPerimeter=0;" parent="1" source="ozXagMjWztN7Irjtj4HX-14" target="ozXagMjWztN7Irjtj4HX-28" edge="1">
          <mxGeometry width="50" height="50" relative="1" as="geometry">
            <mxPoint x="210" y="520" as="sourcePoint" />
            <mxPoint x="330" y="610" as="targetPoint" />
          </mxGeometry>
        </mxCell>
        <mxCell id="ozXagMjWztN7Irjtj4HX-30" value="路径规划" style="rounded=0;whiteSpace=wrap;html=1;fontFamily=宋体;fontSize=17;" parent="1" vertex="1">
          <mxGeometry x="170" y="830" width="120" height="60" as="geometry" />
        </mxCell>
        <mxCell id="ozXagMjWztN7Irjtj4HX-31" value="" style="endArrow=classic;html=1;rounded=0;entryX=0.5;entryY=0;entryDx=0;entryDy=0;exitX=0.418;exitY=0.975;exitDx=0;exitDy=0;exitPerimeter=0;" parent="1" source="ozXagMjWztN7Irjtj4HX-28" target="ozXagMjWztN7Irjtj4HX-30" edge="1">
          <mxGeometry width="50" height="50" relative="1" as="geometry">
            <mxPoint x="236" y="532" as="sourcePoint" />
            <mxPoint x="111" y="661" as="targetPoint" />
          </mxGeometry>
        </mxCell>
        <mxCell id="ozXagMjWztN7Irjtj4HX-32" value="路径跟随" style="rounded=0;whiteSpace=wrap;html=1;fontFamily=宋体;fontSize=17;" parent="1" vertex="1">
          <mxGeometry x="354" y="800" width="120" height="60" as="geometry" />
        </mxCell>
        <mxCell id="ozXagMjWztN7Irjtj4HX-33" value="" style="endArrow=classic;html=1;rounded=0;exitX=0.1;exitY=1.042;exitDx=0;exitDy=0;entryX=0.5;entryY=0;entryDx=0;entryDy=0;exitPerimeter=0;" parent="1" source="ozXagMjWztN7Irjtj4HX-24" target="ozXagMjWztN7Irjtj4HX-32" edge="1">
          <mxGeometry width="50" height="50" relative="1" as="geometry">
            <mxPoint x="340" y="515" as="sourcePoint" />
            <mxPoint x="510" y="600" as="targetPoint" />
          </mxGeometry>
        </mxCell>
        <mxCell id="ozXagMjWztN7Irjtj4HX-34" value="动力学" style="rounded=0;whiteSpace=wrap;html=1;fontFamily=宋体;fontSize=17;" parent="1" vertex="1">
          <mxGeometry x="730" y="710" width="120" height="60" as="geometry" />
        </mxCell>
        <mxCell id="ozXagMjWztN7Irjtj4HX-35" value="运动学" style="rounded=0;whiteSpace=wrap;html=1;fontFamily=宋体;fontSize=17;" parent="1" vertex="1">
          <mxGeometry x="550" y="800" width="120" height="60" as="geometry" />
        </mxCell>
        <mxCell id="ozXagMjWztN7Irjtj4HX-36" value="" style="endArrow=classic;html=1;rounded=0;exitX=0.383;exitY=0.975;exitDx=0;exitDy=0;exitPerimeter=0;" parent="1" source="ozXagMjWztN7Irjtj4HX-24" target="ozXagMjWztN7Irjtj4HX-35" edge="1">
          <mxGeometry width="50" height="50" relative="1" as="geometry">
            <mxPoint x="600" y="630" as="sourcePoint" />
            <mxPoint x="711" y="710" as="targetPoint" />
          </mxGeometry>
        </mxCell>
        <mxCell id="ozXagMjWztN7Irjtj4HX-37" value="" style="endArrow=classic;html=1;rounded=0;entryX=0;entryY=0.5;entryDx=0;entryDy=0;exitX=0.608;exitY=0.992;exitDx=0;exitDy=0;exitPerimeter=0;" parent="1" source="ozXagMjWztN7Irjtj4HX-24" target="ozXagMjWztN7Irjtj4HX-34" edge="1">
          <mxGeometry width="50" height="50" relative="1" as="geometry">
            <mxPoint x="620" y="575" as="sourcePoint" />
            <mxPoint x="508" y="750" as="targetPoint" />
          </mxGeometry>
        </mxCell>
        <mxCell id="ozXagMjWztN7Irjtj4HX-39" value="" style="endArrow=classic;html=1;rounded=0;exitX=0.75;exitY=0;exitDx=0;exitDy=0;entryX=0;entryY=0.75;entryDx=0;entryDy=0;" parent="1" source="ozXagMjWztN7Irjtj4HX-34" edge="1">
          <mxGeometry width="50" height="50" relative="1" as="geometry">
            <mxPoint x="630" y="585" as="sourcePoint" />
            <mxPoint x="900" y="654.9999999999995" as="targetPoint" />
          </mxGeometry>
        </mxCell>
        <mxCell id="ozXagMjWztN7Irjtj4HX-41" value="" style="endArrow=classic;html=1;rounded=0;exitX=0;exitY=0.75;exitDx=0;exitDy=0;" parent="1" source="ozXagMjWztN7Irjtj4HX-28" edge="1">
          <mxGeometry width="50" height="50" relative="1" as="geometry">
            <mxPoint x="290" y="719" as="sourcePoint" />
            <mxPoint x="110" y="760" as="targetPoint" />
          </mxGeometry>
        </mxCell>
        <mxCell id="ozXagMjWztN7Irjtj4HX-42" value="" style="endArrow=classic;html=1;rounded=0;exitX=0;exitY=0.5;exitDx=0;exitDy=0;entryX=1;entryY=0.5;entryDx=0;entryDy=0;" parent="1" source="ozXagMjWztN7Irjtj4HX-22" target="ozXagMjWztN7Irjtj4HX-48" edge="1">
          <mxGeometry width="50" height="50" relative="1" as="geometry">
            <mxPoint x="240" y="705" as="sourcePoint" />
            <mxPoint x="-260" y="640" as="targetPoint" />
          </mxGeometry>
        </mxCell>
        <mxCell id="ozXagMjWztN7Irjtj4HX-43" value="" style="endArrow=classic;html=1;rounded=0;exitX=0.25;exitY=1;exitDx=0;exitDy=0;entryX=0.628;entryY=-0.039;entryDx=0;entryDy=0;entryPerimeter=0;" parent="1" source="ozXagMjWztN7Irjtj4HX-22" target="ozXagMjWztN7Irjtj4HX-46" edge="1">
          <mxGeometry width="50" height="50" relative="1" as="geometry">
            <mxPoint x="-90" y="670" as="sourcePoint" />
            <mxPoint x="-120" y="790" as="targetPoint" />
          </mxGeometry>
        </mxCell>
        <mxCell id="ozXagMjWztN7Irjtj4HX-45" value="" style="endArrow=classic;html=1;rounded=0;" parent="1" edge="1">
          <mxGeometry width="50" height="50" relative="1" as="geometry">
            <mxPoint x="-170" y="820" as="sourcePoint" />
            <mxPoint x="-290" y="910" as="targetPoint" />
          </mxGeometry>
        </mxCell>
        <mxCell id="ozXagMjWztN7Irjtj4HX-46" value="融合" style="rounded=0;whiteSpace=wrap;html=1;fontFamily=宋体;fontSize=17;" parent="1" vertex="1">
          <mxGeometry x="-180" y="780" width="120" height="60" as="geometry" />
        </mxCell>
        <mxCell id="ozXagMjWztN7Irjtj4HX-47" value="" style="endArrow=classic;html=1;rounded=0;exitX=0;exitY=0.5;exitDx=0;exitDy=0;entryX=1;entryY=0.5;entryDx=0;entryDy=0;" parent="1" source="ozXagMjWztN7Irjtj4HX-48" target="ozXagMjWztN7Irjtj4HX-81" edge="1">
          <mxGeometry width="50" height="50" relative="1" as="geometry">
            <mxPoint x="-420" y="680" as="sourcePoint" />
            <mxPoint x="-480" y="480" as="targetPoint" />
          </mxGeometry>
        </mxCell>
        <mxCell id="ozXagMjWztN7Irjtj4HX-48" value="内传感" style="rounded=0;whiteSpace=wrap;html=1;fontFamily=宋体;fontSize=17;" parent="1" vertex="1">
          <mxGeometry x="-350" y="520" width="120" height="60" as="geometry" />
        </mxCell>
        <mxCell id="ozXagMjWztN7Irjtj4HX-49" value="外传感" style="rounded=0;whiteSpace=wrap;html=1;fontFamily=宋体;fontSize=17;" parent="1" vertex="1">
          <mxGeometry x="-340" y="670" width="120" height="60" as="geometry" />
        </mxCell>
        <mxCell id="ozXagMjWztN7Irjtj4HX-54" value="" style="endArrow=classic;html=1;rounded=0;exitX=0;exitY=0.75;exitDx=0;exitDy=0;entryX=1;entryY=0.5;entryDx=0;entryDy=0;" parent="1" source="ozXagMjWztN7Irjtj4HX-22" target="ozXagMjWztN7Irjtj4HX-49" edge="1">
          <mxGeometry width="50" height="50" relative="1" as="geometry">
            <mxPoint x="-80" y="670" as="sourcePoint" />
            <mxPoint x="-220" y="560" as="targetPoint" />
          </mxGeometry>
        </mxCell>
        <mxCell id="ozXagMjWztN7Irjtj4HX-55" value="" style="shape=hexagon;perimeter=hexagonPerimeter2;whiteSpace=wrap;html=1;fixedSize=1;" parent="1" vertex="1">
          <mxGeometry x="910" y="810" width="120" height="80" as="geometry" />
        </mxCell>
        <mxCell id="ozXagMjWztN7Irjtj4HX-56" value="" style="endArrow=classic;html=1;rounded=0;exitX=0.25;exitY=1;exitDx=0;exitDy=0;entryX=0.664;entryY=0.033;entryDx=0;entryDy=0;entryPerimeter=0;" parent="1" source="ozXagMjWztN7Irjtj4HX-30" target="ozXagMjWztN7Irjtj4HX-59" edge="1">
          <mxGeometry width="50" height="50" relative="1" as="geometry">
            <mxPoint x="290" y="719" as="sourcePoint" />
            <mxPoint x="120" y="1000" as="targetPoint" />
          </mxGeometry>
        </mxCell>
        <mxCell id="ozXagMjWztN7Irjtj4HX-57" value="" style="endArrow=classic;html=1;rounded=0;exitX=0.593;exitY=1.003;exitDx=0;exitDy=0;exitPerimeter=0;entryX=0.25;entryY=0;entryDx=0;entryDy=0;" parent="1" source="ozXagMjWztN7Irjtj4HX-30" target="ozXagMjWztN7Irjtj4HX-60" edge="1">
          <mxGeometry width="50" height="50" relative="1" as="geometry">
            <mxPoint x="242" y="893" as="sourcePoint" />
            <mxPoint x="250" y="1030" as="targetPoint" />
          </mxGeometry>
        </mxCell>
        <mxCell id="ozXagMjWztN7Irjtj4HX-59" value="基于采样&lt;span style=&quot;color: rgba(0, 0, 0, 0); font-family: monospace; font-size: 0px; text-align: start; text-wrap-mode: nowrap;&quot;&gt;%3CmxGraphModel%3E%3Croot%3E%3CmxCell%20id%3D%220%22%2F%3E%3CmxCell%20id%3D%221%22%20parent%3D%220%22%2F%3E%3CmxCell%20id%3D%222%22%20value%3D%22%E8%B7%AF%E5%BE%84%E8%A7%84%E5%88%92%22%20style%3D%22rounded%3D0%3BwhiteSpace%3Dwrap%3Bhtml%3D1%3BfontFamily%3D%E5%AE%8B%E4%BD%93%3BfontSize%3D17%3B%22%20vertex%3D%221%22%20parent%3D%221%22%3E%3CmxGeometry%20x%3D%22170%22%20y%3D%22830%22%20width%3D%22120%22%20height%3D%2260%22%20as%3D%22geometry%22%2F%3E%3C%2FmxCell%3E%3C%2Froot%3E%3C%2FmxGraphModel%3E&lt;/span&gt;" style="rounded=0;whiteSpace=wrap;html=1;fontFamily=宋体;fontSize=17;" parent="1" vertex="1">
          <mxGeometry x="30" y="990" width="120" height="60" as="geometry" />
        </mxCell>
        <mxCell id="ozXagMjWztN7Irjtj4HX-60" value="基于" style="rounded=0;whiteSpace=wrap;html=1;fontFamily=宋体;fontSize=17;" parent="1" vertex="1">
          <mxGeometry x="240" y="1000" width="120" height="60" as="geometry" />
        </mxCell>
        <mxCell id="ozXagMjWztN7Irjtj4HX-61" value="VLA" style="rounded=0;whiteSpace=wrap;html=1;fontFamily=宋体;fontSize=17;" parent="1" vertex="1">
          <mxGeometry x="797" y="280" width="120" height="60" as="geometry" />
        </mxCell>
        <mxCell id="ozXagMjWztN7Irjtj4HX-62" value="LLM" style="rounded=0;whiteSpace=wrap;html=1;fontFamily=宋体;fontSize=17;" parent="1" vertex="1">
          <mxGeometry x="580" y="160" width="120" height="60" as="geometry" />
        </mxCell>
        <mxCell id="ozXagMjWztN7Irjtj4HX-64" value="" style="endArrow=classic;html=1;rounded=0;exitX=0.425;exitY=0.025;exitDx=0;exitDy=0;exitPerimeter=0;entryX=0.5;entryY=1;entryDx=0;entryDy=0;" parent="1" source="ozXagMjWztN7Irjtj4HX-3" target="ozXagMjWztN7Irjtj4HX-62" edge="1">
          <mxGeometry width="50" height="50" relative="1" as="geometry">
            <mxPoint x="730" y="400" as="sourcePoint" />
            <mxPoint x="690" y="190" as="targetPoint" />
          </mxGeometry>
        </mxCell>
        <mxCell id="ozXagMjWztN7Irjtj4HX-65" value="" style="endArrow=classic;html=1;rounded=0;exitX=1;exitY=0.5;exitDx=0;exitDy=0;entryX=0;entryY=0.5;entryDx=0;entryDy=0;" parent="1" source="ozXagMjWztN7Irjtj4HX-3" target="ozXagMjWztN7Irjtj4HX-61" edge="1">
          <mxGeometry width="50" height="50" relative="1" as="geometry">
            <mxPoint x="690" y="370" as="sourcePoint" />
            <mxPoint x="761" y="460" as="targetPoint" />
          </mxGeometry>
        </mxCell>
        <mxCell id="ozXagMjWztN7Irjtj4HX-66" value="&lt;span style=&quot;font-family: 宋体; font-size: 17px;&quot;&gt;具身智能&lt;/span&gt;" style="ellipse;whiteSpace=wrap;html=1;aspect=fixed;" parent="1" vertex="1">
          <mxGeometry x="320" y="170" width="130" height="130" as="geometry" />
        </mxCell>
        <mxCell id="ozXagMjWztN7Irjtj4HX-67" value="" style="endArrow=classic;html=1;rounded=0;exitX=0.026;exitY=0.656;exitDx=0;exitDy=0;exitPerimeter=0;entryX=1;entryY=0.5;entryDx=0;entryDy=0;" parent="1" source="ozXagMjWztN7Irjtj4HX-66" target="ozXagMjWztN7Irjtj4HX-2" edge="1">
          <mxGeometry width="50" height="50" relative="1" as="geometry">
            <mxPoint x="350" y="370" as="sourcePoint" />
            <mxPoint x="400" y="320" as="targetPoint" />
          </mxGeometry>
        </mxCell>
        <mxCell id="ozXagMjWztN7Irjtj4HX-68" value="" style="endArrow=classic;html=1;rounded=0;exitX=0.98;exitY=0.642;exitDx=0;exitDy=0;exitPerimeter=0;entryX=0;entryY=0.5;entryDx=0;entryDy=0;" parent="1" source="ozXagMjWztN7Irjtj4HX-66" target="ozXagMjWztN7Irjtj4HX-3" edge="1">
          <mxGeometry width="50" height="50" relative="1" as="geometry">
            <mxPoint x="333" y="265" as="sourcePoint" />
            <mxPoint x="250" y="300" as="targetPoint" />
          </mxGeometry>
        </mxCell>
        <mxCell id="ozXagMjWztN7Irjtj4HX-69" value="" style="endArrow=classic;html=1;rounded=0;exitX=0.665;exitY=1.01;exitDx=0;exitDy=0;exitPerimeter=0;entryX=0.25;entryY=0;entryDx=0;entryDy=0;" parent="1" source="ozXagMjWztN7Irjtj4HX-3" target="ozXagMjWztN7Irjtj4HX-71" edge="1">
          <mxGeometry width="50" height="50" relative="1" as="geometry">
            <mxPoint x="639" y="491" as="sourcePoint" />
            <mxPoint x="760" y="450" as="targetPoint" />
          </mxGeometry>
        </mxCell>
        <mxCell id="ozXagMjWztN7Irjtj4HX-71" value="强化学习" style="rounded=0;whiteSpace=wrap;html=1;fontFamily=宋体;fontSize=17;" parent="1" vertex="1">
          <mxGeometry x="720" y="460" width="120" height="60" as="geometry" />
        </mxCell>
        <mxCell id="ozXagMjWztN7Irjtj4HX-72" value="DH参数" style="rounded=0;whiteSpace=wrap;html=1;fontFamily=宋体;fontSize=17;" parent="1" vertex="1">
          <mxGeometry x="730" y="920" width="120" height="60" as="geometry" />
        </mxCell>
        <mxCell id="ozXagMjWztN7Irjtj4HX-74" value="" style="endArrow=classic;html=1;rounded=0;exitX=0.75;exitY=1;exitDx=0;exitDy=0;entryX=0.25;entryY=0;entryDx=0;entryDy=0;" parent="1" source="ozXagMjWztN7Irjtj4HX-35" target="ozXagMjWztN7Irjtj4HX-72" edge="1">
          <mxGeometry width="50" height="50" relative="1" as="geometry">
            <mxPoint x="556" y="629" as="sourcePoint" />
            <mxPoint x="611" y="810" as="targetPoint" />
            <Array as="points">
              <mxPoint x="700" y="890" />
            </Array>
          </mxGeometry>
        </mxCell>
        <mxCell id="ozXagMjWztN7Irjtj4HX-75" value="指数积" style="rounded=0;whiteSpace=wrap;html=1;fontFamily=宋体;fontSize=17;" parent="1" vertex="1">
          <mxGeometry x="570" y="970" width="120" height="60" as="geometry" />
        </mxCell>
        <mxCell id="ozXagMjWztN7Irjtj4HX-77" value="" style="endArrow=classic;html=1;rounded=0;exitX=0.355;exitY=0.97;exitDx=0;exitDy=0;exitPerimeter=0;entryX=0.369;entryY=0.019;entryDx=0;entryDy=0;entryPerimeter=0;" parent="1" source="ozXagMjWztN7Irjtj4HX-35" target="ozXagMjWztN7Irjtj4HX-75" edge="1">
          <mxGeometry width="50" height="50" relative="1" as="geometry">
            <mxPoint x="570" y="980" as="sourcePoint" />
            <mxPoint x="620" y="930" as="targetPoint" />
          </mxGeometry>
        </mxCell>
        <mxCell id="ozXagMjWztN7Irjtj4HX-78" value="" style="endArrow=classic;html=1;rounded=0;exitX=0.722;exitY=0.038;exitDx=0;exitDy=0;entryX=0.375;entryY=0.963;entryDx=0;entryDy=0;entryPerimeter=0;exitPerimeter=0;" parent="1" source="ozXagMjWztN7Irjtj4HX-66" target="ozXagMjWztN7Irjtj4HX-79" edge="1">
          <mxGeometry width="50" height="50" relative="1" as="geometry">
            <mxPoint x="457" y="263" as="sourcePoint" />
            <mxPoint x="460" y="-50" as="targetPoint" />
          </mxGeometry>
        </mxCell>
        <mxCell id="ozXagMjWztN7Irjtj4HX-79" value="计算机" style="rounded=0;whiteSpace=wrap;html=1;fontFamily=宋体;fontSize=17;" parent="1" vertex="1">
          <mxGeometry x="390" width="120" height="60" as="geometry" />
        </mxCell>
        <mxCell id="ozXagMjWztN7Irjtj4HX-81" value="电机编码器" style="rounded=0;whiteSpace=wrap;html=1;fontFamily=宋体;fontSize=17;" parent="1" vertex="1">
          <mxGeometry x="-570" y="450" width="120" height="60" as="geometry" />
        </mxCell>
        <mxCell id="ozXagMjWztN7Irjtj4HX-82" value="IMU" style="rounded=0;whiteSpace=wrap;html=1;fontFamily=宋体;fontSize=17;" parent="1" vertex="1">
          <mxGeometry x="-610" y="560" width="120" height="60" as="geometry" />
        </mxCell>
        <mxCell id="ozXagMjWztN7Irjtj4HX-83" value="" style="endArrow=classic;html=1;rounded=0;exitX=0;exitY=0.75;exitDx=0;exitDy=0;entryX=1;entryY=0.5;entryDx=0;entryDy=0;" parent="1" source="ozXagMjWztN7Irjtj4HX-48" target="ozXagMjWztN7Irjtj4HX-82" edge="1">
          <mxGeometry width="50" height="50" relative="1" as="geometry">
            <mxPoint x="-340" y="560" as="sourcePoint" />
            <mxPoint x="-440" y="490" as="targetPoint" />
          </mxGeometry>
        </mxCell>
        <mxCell id="ozXagMjWztN7Irjtj4HX-84" value="视觉" style="rounded=0;whiteSpace=wrap;html=1;fontFamily=宋体;fontSize=17;" parent="1" vertex="1">
          <mxGeometry x="-570" y="740" width="120" height="60" as="geometry" />
        </mxCell>
        <mxCell id="ozXagMjWztN7Irjtj4HX-85" value="" style="endArrow=classic;html=1;rounded=0;exitX=0;exitY=0.75;exitDx=0;exitDy=0;entryX=1;entryY=0.25;entryDx=0;entryDy=0;" parent="1" source="ozXagMjWztN7Irjtj4HX-49" target="ozXagMjWztN7Irjtj4HX-84" edge="1">
          <mxGeometry width="50" height="50" relative="1" as="geometry">
            <mxPoint x="-380" y="687.5" as="sourcePoint" />
            <mxPoint x="-520" y="712.5" as="targetPoint" />
          </mxGeometry>
        </mxCell>
        <mxCell id="ozXagMjWztN7Irjtj4HX-86" value="" style="endArrow=classic;html=1;rounded=0;exitX=0.12;exitY=0.99;exitDx=0;exitDy=0;exitPerimeter=0;" parent="1" source="ozXagMjWztN7Irjtj4HX-84" edge="1">
          <mxGeometry width="50" height="50" relative="1" as="geometry">
            <mxPoint x="-500" y="850" as="sourcePoint" />
            <mxPoint x="-610" y="890" as="targetPoint" />
          </mxGeometry>
        </mxCell>
        <mxCell id="ozXagMjWztN7Irjtj4HX-87" value="" style="endArrow=classic;html=1;rounded=0;exitX=0.75;exitY=1;exitDx=0;exitDy=0;" parent="1" source="ozXagMjWztN7Irjtj4HX-46" edge="1">
          <mxGeometry width="50" height="50" relative="1" as="geometry">
            <mxPoint x="-80" y="900" as="sourcePoint" />
            <mxPoint x="-130" y="950" as="targetPoint" />
          </mxGeometry>
        </mxCell>
        <mxCell id="rtpB-HcPNaCeteyEXE7F-1" value="" style="endArrow=classic;html=1;rounded=0;exitX=0.84;exitY=0.074;exitDx=0;exitDy=0;exitPerimeter=0;entryX=0.35;entryY=0.993;entryDx=0;entryDy=0;entryPerimeter=0;" edge="1" parent="1" source="ozXagMjWztN7Irjtj4HX-79" target="rtpB-HcPNaCeteyEXE7F-2">
          <mxGeometry width="50" height="50" relative="1" as="geometry">
            <mxPoint x="649" y="-63" as="sourcePoint" />
            <mxPoint x="550" y="-90" as="targetPoint" />
          </mxGeometry>
        </mxCell>
        <mxCell id="rtpB-HcPNaCeteyEXE7F-2" value="图形学" style="rounded=0;whiteSpace=wrap;html=1;fontFamily=宋体;fontSize=17;" vertex="1" parent="1">
          <mxGeometry x="490" y="-150" width="120" height="60" as="geometry" />
        </mxCell>
        <mxCell id="rtpB-HcPNaCeteyEXE7F-3" value="" style="endArrow=classic;html=1;rounded=0;exitX=0.25;exitY=0;exitDx=0;exitDy=0;entryX=1;entryY=0.5;entryDx=0;entryDy=0;" edge="1" parent="1" source="rtpB-HcPNaCeteyEXE7F-2" target="rtpB-HcPNaCeteyEXE7F-5">
          <mxGeometry width="50" height="50" relative="1" as="geometry">
            <mxPoint x="501" y="14" as="sourcePoint" />
            <mxPoint x="440" y="-230" as="targetPoint" />
          </mxGeometry>
        </mxCell>
        <mxCell id="rtpB-HcPNaCeteyEXE7F-5" value="3D重建" style="rounded=0;whiteSpace=wrap;html=1;fontFamily=宋体;fontSize=17;" vertex="1" parent="1">
          <mxGeometry x="330" y="-260" width="120" height="60" as="geometry" />
        </mxCell>
      </root>
    </mxGraphModel>
  </diagram>
</mxfile>
